<?xml version="1.0"?>
<svg xmlns="http://www.w3.org/2000/svg" xmlns:xlink="http://www.w3.org/1999/xlink" viewBox="0 0 712.200000 392.000000" width="356.100000mm" height="196.000000mm" version="1.1">
<a xlink:href="process.svg">
<rect x="1.000000" y="1.000000" width="711.200000" height="391.000000" rx="0" ry="0" style="stroke:none;fill:#cccccc;"/>
<rect x="0.000000" y="0.000000" width="711.200000" height="391.000000" rx="0" ry="0" style="stroke:none;fill:#ffffff;"/>
</a>
<text x="10.000000" y="7.000000" font-family="Arial" font-size="7"></text>
<a xlink:href="modalreverb-0x7fec4e341070.svg">
<rect x="227.000000" y="33.000000" width="51.600000" height="336.000000" rx="0" ry="0" style="stroke:none;fill:#cccccc;"/>
<rect x="226.000000" y="32.000000" width="51.600000" height="336.000000" rx="0" ry="0" style="stroke:none;fill:#003366;"/>
</a>
<a xlink:href="modalreverb-0x7fec4e341070.svg">
<text x="251.800000" y="202.000000" font-family="Arial" font-size="7" text-anchor="middle" fill="#FFFFFF">modalreverb</text>
</a>
<circle cx="228.000000" cy="34.000000" r="1"/>
<line x1="223.000000" y1="35.000000" x2="226.000000" y2="36.000000"  transform="rotate(0.000000,226.000000,36.000000)" style="stroke: black; stroke-width:0.25;"/>
<line x1="223.000000" y1="37.000000" x2="226.000000" y2="36.000000"  transform="rotate(0.000000,226.000000,36.000000)" style="stroke: black; stroke-width:0.25;"/>
<line x1="223.000000" y1="43.000000" x2="226.000000" y2="44.000000"  transform="rotate(0.000000,226.000000,44.000000)" style="stroke: black; stroke-width:0.25;"/>
<line x1="223.000000" y1="45.000000" x2="226.000000" y2="44.000000"  transform="rotate(0.000000,226.000000,44.000000)" style="stroke: black; stroke-width:0.25;"/>
<line x1="223.000000" y1="51.000000" x2="226.000000" y2="52.000000"  transform="rotate(0.000000,226.000000,52.000000)" style="stroke: black; stroke-width:0.25;"/>
<line x1="223.000000" y1="53.000000" x2="226.000000" y2="52.000000"  transform="rotate(0.000000,226.000000,52.000000)" style="stroke: black; stroke-width:0.25;"/>
<line x1="223.000000" y1="59.000000" x2="226.000000" y2="60.000000"  transform="rotate(0.000000,226.000000,60.000000)" style="stroke: black; stroke-width:0.25;"/>
<line x1="223.000000" y1="61.000000" x2="226.000000" y2="60.000000"  transform="rotate(0.000000,226.000000,60.000000)" style="stroke: black; stroke-width:0.25;"/>
<line x1="223.000000" y1="67.000000" x2="226.000000" y2="68.000000"  transform="rotate(0.000000,226.000000,68.000000)" style="stroke: black; stroke-width:0.25;"/>
<line x1="223.000000" y1="69.000000" x2="226.000000" y2="68.000000"  transform="rotate(0.000000,226.000000,68.000000)" style="stroke: black; stroke-width:0.25;"/>
<line x1="223.000000" y1="75.000000" x2="226.000000" y2="76.000000"  transform="rotate(0.000000,226.000000,76.000000)" style="stroke: black; stroke-width:0.25;"/>
<line x1="223.000000" y1="77.000000" x2="226.000000" y2="76.000000"  transform="rotate(0.000000,226.000000,76.000000)" style="stroke: black; stroke-width:0.25;"/>
<line x1="223.000000" y1="83.000000" x2="226.000000" y2="84.000000"  transform="rotate(0.000000,226.000000,84.000000)" style="stroke: black; stroke-width:0.25;"/>
<line x1="223.000000" y1="85.000000" x2="226.000000" y2="84.000000"  transform="rotate(0.000000,226.000000,84.000000)" style="stroke: black; stroke-width:0.25;"/>
<line x1="223.000000" y1="91.000000" x2="226.000000" y2="92.000000"  transform="rotate(0.000000,226.000000,92.000000)" style="stroke: black; stroke-width:0.25;"/>
<line x1="223.000000" y1="93.000000" x2="226.000000" y2="92.000000"  transform="rotate(0.000000,226.000000,92.000000)" style="stroke: black; stroke-width:0.25;"/>
<line x1="223.000000" y1="99.000000" x2="226.000000" y2="100.000000"  transform="rotate(0.000000,226.000000,100.000000)" style="stroke: black; stroke-width:0.25;"/>
<line x1="223.000000" y1="101.000000" x2="226.000000" y2="100.000000"  transform="rotate(0.000000,226.000000,100.000000)" style="stroke: black; stroke-width:0.25;"/>
<line x1="223.000000" y1="107.000000" x2="226.000000" y2="108.000000"  transform="rotate(0.000000,226.000000,108.000000)" style="stroke: black; stroke-width:0.25;"/>
<line x1="223.000000" y1="109.000000" x2="226.000000" y2="108.000000"  transform="rotate(0.000000,226.000000,108.000000)" style="stroke: black; stroke-width:0.25;"/>
<line x1="223.000000" y1="115.000000" x2="226.000000" y2="116.000000"  transform="rotate(0.000000,226.000000,116.000000)" style="stroke: black; stroke-width:0.25;"/>
<line x1="223.000000" y1="117.000000" x2="226.000000" y2="116.000000"  transform="rotate(0.000000,226.000000,116.000000)" style="stroke: black; stroke-width:0.25;"/>
<line x1="223.000000" y1="123.000000" x2="226.000000" y2="124.000000"  transform="rotate(0.000000,226.000000,124.000000)" style="stroke: black; stroke-width:0.25;"/>
<line x1="223.000000" y1="125.000000" x2="226.000000" y2="124.000000"  transform="rotate(0.000000,226.000000,124.000000)" style="stroke: black; stroke-width:0.25;"/>
<line x1="223.000000" y1="131.000000" x2="226.000000" y2="132.000000"  transform="rotate(0.000000,226.000000,132.000000)" style="stroke: black; stroke-width:0.25;"/>
<line x1="223.000000" y1="133.000000" x2="226.000000" y2="132.000000"  transform="rotate(0.000000,226.000000,132.000000)" style="stroke: black; stroke-width:0.25;"/>
<line x1="223.000000" y1="139.000000" x2="226.000000" y2="140.000000"  transform="rotate(0.000000,226.000000,140.000000)" style="stroke: black; stroke-width:0.25;"/>
<line x1="223.000000" y1="141.000000" x2="226.000000" y2="140.000000"  transform="rotate(0.000000,226.000000,140.000000)" style="stroke: black; stroke-width:0.25;"/>
<line x1="223.000000" y1="147.000000" x2="226.000000" y2="148.000000"  transform="rotate(0.000000,226.000000,148.000000)" style="stroke: black; stroke-width:0.25;"/>
<line x1="223.000000" y1="149.000000" x2="226.000000" y2="148.000000"  transform="rotate(0.000000,226.000000,148.000000)" style="stroke: black; stroke-width:0.25;"/>
<line x1="223.000000" y1="155.000000" x2="226.000000" y2="156.000000"  transform="rotate(0.000000,226.000000,156.000000)" style="stroke: black; stroke-width:0.25;"/>
<line x1="223.000000" y1="157.000000" x2="226.000000" y2="156.000000"  transform="rotate(0.000000,226.000000,156.000000)" style="stroke: black; stroke-width:0.25;"/>
<line x1="223.000000" y1="163.000000" x2="226.000000" y2="164.000000"  transform="rotate(0.000000,226.000000,164.000000)" style="stroke: black; stroke-width:0.25;"/>
<line x1="223.000000" y1="165.000000" x2="226.000000" y2="164.000000"  transform="rotate(0.000000,226.000000,164.000000)" style="stroke: black; stroke-width:0.25;"/>
<line x1="223.000000" y1="171.000000" x2="226.000000" y2="172.000000"  transform="rotate(0.000000,226.000000,172.000000)" style="stroke: black; stroke-width:0.25;"/>
<line x1="223.000000" y1="173.000000" x2="226.000000" y2="172.000000"  transform="rotate(0.000000,226.000000,172.000000)" style="stroke: black; stroke-width:0.25;"/>
<line x1="223.000000" y1="179.000000" x2="226.000000" y2="180.000000"  transform="rotate(0.000000,226.000000,180.000000)" style="stroke: black; stroke-width:0.25;"/>
<line x1="223.000000" y1="181.000000" x2="226.000000" y2="180.000000"  transform="rotate(0.000000,226.000000,180.000000)" style="stroke: black; stroke-width:0.25;"/>
<line x1="223.000000" y1="187.000000" x2="226.000000" y2="188.000000"  transform="rotate(0.000000,226.000000,188.000000)" style="stroke: black; stroke-width:0.25;"/>
<line x1="223.000000" y1="189.000000" x2="226.000000" y2="188.000000"  transform="rotate(0.000000,226.000000,188.000000)" style="stroke: black; stroke-width:0.25;"/>
<line x1="223.000000" y1="195.000000" x2="226.000000" y2="196.000000"  transform="rotate(0.000000,226.000000,196.000000)" style="stroke: black; stroke-width:0.25;"/>
<line x1="223.000000" y1="197.000000" x2="226.000000" y2="196.000000"  transform="rotate(0.000000,226.000000,196.000000)" style="stroke: black; stroke-width:0.25;"/>
<line x1="223.000000" y1="203.000000" x2="226.000000" y2="204.000000"  transform="rotate(0.000000,226.000000,204.000000)" style="stroke: black; stroke-width:0.25;"/>
<line x1="223.000000" y1="205.000000" x2="226.000000" y2="204.000000"  transform="rotate(0.000000,226.000000,204.000000)" style="stroke: black; stroke-width:0.25;"/>
<line x1="223.000000" y1="211.000000" x2="226.000000" y2="212.000000"  transform="rotate(0.000000,226.000000,212.000000)" style="stroke: black; stroke-width:0.25;"/>
<line x1="223.000000" y1="213.000000" x2="226.000000" y2="212.000000"  transform="rotate(0.000000,226.000000,212.000000)" style="stroke: black; stroke-width:0.25;"/>
<line x1="223.000000" y1="219.000000" x2="226.000000" y2="220.000000"  transform="rotate(0.000000,226.000000,220.000000)" style="stroke: black; stroke-width:0.25;"/>
<line x1="223.000000" y1="221.000000" x2="226.000000" y2="220.000000"  transform="rotate(0.000000,226.000000,220.000000)" style="stroke: black; stroke-width:0.25;"/>
<line x1="223.000000" y1="227.000000" x2="226.000000" y2="228.000000"  transform="rotate(0.000000,226.000000,228.000000)" style="stroke: black; stroke-width:0.25;"/>
<line x1="223.000000" y1="229.000000" x2="226.000000" y2="228.000000"  transform="rotate(0.000000,226.000000,228.000000)" style="stroke: black; stroke-width:0.25;"/>
<line x1="223.000000" y1="235.000000" x2="226.000000" y2="236.000000"  transform="rotate(0.000000,226.000000,236.000000)" style="stroke: black; stroke-width:0.25;"/>
<line x1="223.000000" y1="237.000000" x2="226.000000" y2="236.000000"  transform="rotate(0.000000,226.000000,236.000000)" style="stroke: black; stroke-width:0.25;"/>
<line x1="223.000000" y1="243.000000" x2="226.000000" y2="244.000000"  transform="rotate(0.000000,226.000000,244.000000)" style="stroke: black; stroke-width:0.25;"/>
<line x1="223.000000" y1="245.000000" x2="226.000000" y2="244.000000"  transform="rotate(0.000000,226.000000,244.000000)" style="stroke: black; stroke-width:0.25;"/>
<line x1="223.000000" y1="251.000000" x2="226.000000" y2="252.000000"  transform="rotate(0.000000,226.000000,252.000000)" style="stroke: black; stroke-width:0.25;"/>
<line x1="223.000000" y1="253.000000" x2="226.000000" y2="252.000000"  transform="rotate(0.000000,226.000000,252.000000)" style="stroke: black; stroke-width:0.25;"/>
<line x1="223.000000" y1="259.000000" x2="226.000000" y2="260.000000"  transform="rotate(0.000000,226.000000,260.000000)" style="stroke: black; stroke-width:0.25;"/>
<line x1="223.000000" y1="261.000000" x2="226.000000" y2="260.000000"  transform="rotate(0.000000,226.000000,260.000000)" style="stroke: black; stroke-width:0.25;"/>
<line x1="223.000000" y1="267.000000" x2="226.000000" y2="268.000000"  transform="rotate(0.000000,226.000000,268.000000)" style="stroke: black; stroke-width:0.25;"/>
<line x1="223.000000" y1="269.000000" x2="226.000000" y2="268.000000"  transform="rotate(0.000000,226.000000,268.000000)" style="stroke: black; stroke-width:0.25;"/>
<line x1="223.000000" y1="275.000000" x2="226.000000" y2="276.000000"  transform="rotate(0.000000,226.000000,276.000000)" style="stroke: black; stroke-width:0.25;"/>
<line x1="223.000000" y1="277.000000" x2="226.000000" y2="276.000000"  transform="rotate(0.000000,226.000000,276.000000)" style="stroke: black; stroke-width:0.25;"/>
<line x1="223.000000" y1="283.000000" x2="226.000000" y2="284.000000"  transform="rotate(0.000000,226.000000,284.000000)" style="stroke: black; stroke-width:0.25;"/>
<line x1="223.000000" y1="285.000000" x2="226.000000" y2="284.000000"  transform="rotate(0.000000,226.000000,284.000000)" style="stroke: black; stroke-width:0.25;"/>
<line x1="223.000000" y1="291.000000" x2="226.000000" y2="292.000000"  transform="rotate(0.000000,226.000000,292.000000)" style="stroke: black; stroke-width:0.25;"/>
<line x1="223.000000" y1="293.000000" x2="226.000000" y2="292.000000"  transform="rotate(0.000000,226.000000,292.000000)" style="stroke: black; stroke-width:0.25;"/>
<line x1="223.000000" y1="299.000000" x2="226.000000" y2="300.000000"  transform="rotate(0.000000,226.000000,300.000000)" style="stroke: black; stroke-width:0.25;"/>
<line x1="223.000000" y1="301.000000" x2="226.000000" y2="300.000000"  transform="rotate(0.000000,226.000000,300.000000)" style="stroke: black; stroke-width:0.25;"/>
<line x1="223.000000" y1="307.000000" x2="226.000000" y2="308.000000"  transform="rotate(0.000000,226.000000,308.000000)" style="stroke: black; stroke-width:0.25;"/>
<line x1="223.000000" y1="309.000000" x2="226.000000" y2="308.000000"  transform="rotate(0.000000,226.000000,308.000000)" style="stroke: black; stroke-width:0.25;"/>
<line x1="223.000000" y1="315.000000" x2="226.000000" y2="316.000000"  transform="rotate(0.000000,226.000000,316.000000)" style="stroke: black; stroke-width:0.25;"/>
<line x1="223.000000" y1="317.000000" x2="226.000000" y2="316.000000"  transform="rotate(0.000000,226.000000,316.000000)" style="stroke: black; stroke-width:0.25;"/>
<line x1="223.000000" y1="323.000000" x2="226.000000" y2="324.000000"  transform="rotate(0.000000,226.000000,324.000000)" style="stroke: black; stroke-width:0.25;"/>
<line x1="223.000000" y1="325.000000" x2="226.000000" y2="324.000000"  transform="rotate(0.000000,226.000000,324.000000)" style="stroke: black; stroke-width:0.25;"/>
<line x1="223.000000" y1="331.000000" x2="226.000000" y2="332.000000"  transform="rotate(0.000000,226.000000,332.000000)" style="stroke: black; stroke-width:0.25;"/>
<line x1="223.000000" y1="333.000000" x2="226.000000" y2="332.000000"  transform="rotate(0.000000,226.000000,332.000000)" style="stroke: black; stroke-width:0.25;"/>
<line x1="223.000000" y1="339.000000" x2="226.000000" y2="340.000000"  transform="rotate(0.000000,226.000000,340.000000)" style="stroke: black; stroke-width:0.25;"/>
<line x1="223.000000" y1="341.000000" x2="226.000000" y2="340.000000"  transform="rotate(0.000000,226.000000,340.000000)" style="stroke: black; stroke-width:0.25;"/>
<line x1="223.000000" y1="347.000000" x2="226.000000" y2="348.000000"  transform="rotate(0.000000,226.000000,348.000000)" style="stroke: black; stroke-width:0.25;"/>
<line x1="223.000000" y1="349.000000" x2="226.000000" y2="348.000000"  transform="rotate(0.000000,226.000000,348.000000)" style="stroke: black; stroke-width:0.25;"/>
<line x1="223.000000" y1="355.000000" x2="226.000000" y2="356.000000"  transform="rotate(0.000000,226.000000,356.000000)" style="stroke: black; stroke-width:0.25;"/>
<line x1="223.000000" y1="357.000000" x2="226.000000" y2="356.000000"  transform="rotate(0.000000,226.000000,356.000000)" style="stroke: black; stroke-width:0.25;"/>
<line x1="223.000000" y1="363.000000" x2="226.000000" y2="364.000000"  transform="rotate(0.000000,226.000000,364.000000)" style="stroke: black; stroke-width:0.25;"/>
<line x1="223.000000" y1="365.000000" x2="226.000000" y2="364.000000"  transform="rotate(0.000000,226.000000,364.000000)" style="stroke: black; stroke-width:0.25;"/>
<rect x="390.900000" y="133.000000" width="24.000000" height="24.000000" rx="0" ry="0" style="stroke:none;fill:#cccccc;"/>
<rect x="389.900000" y="132.000000" width="24.000000" height="24.000000" rx="0" ry="0" style="stroke:none;fill:#f44800;"/>
<text x="401.900000" y="146.000000" font-family="Arial" font-size="7" text-anchor="middle" fill="#FFFFFF">1</text>
<circle cx="391.900000" cy="134.000000" r="1"/>
<line x1="380.900000" y1="123.000000" x2="380.900000" y2="165.000000"  style="stroke: black; stroke-linecap:round; stroke-width:0.25; stroke-dasharray:3,3;"/>
<line x1="380.900000" y1="165.000000" x2="422.900000" y2="165.000000"  style="stroke: black; stroke-linecap:round; stroke-width:0.25; stroke-dasharray:3,3;"/>
<line x1="422.900000" y1="165.000000" x2="422.900000" y2="123.000000"  style="stroke: black; stroke-linecap:round; stroke-width:0.25; stroke-dasharray:3,3;"/>
<line x1="380.900000" y1="123.000000" x2="385.900000" y2="123.000000"  style="stroke: black; stroke-linecap:round; stroke-width:0.25; stroke-dasharray:3,3;"/>
<line x1="398.800000" y1="123.000000" x2="422.900000" y2="123.000000"  style="stroke: black; stroke-linecap:round; stroke-width:0.25; stroke-dasharray:3,3;"/>
<text x="385.900000" y="125.000000" font-family="Arial" font-size="7">a0</text>
<rect x="312.600000" y="185.000000" width="180.600000" height="24.000000" rx="0" ry="0" style="stroke:none;fill:#cccccc;"/>
<rect x="311.600000" y="184.000000" width="180.600000" height="24.000000" rx="0" ry="0" style="stroke:none;fill:#477881;"/>
<text x="401.900000" y="198.000000" font-family="Arial" font-size="7" text-anchor="middle" fill="#FFFFFF">vslider(Dry-Wet, 1.0f, 0.0f, 1.0f, 0.01f)</text>
<circle cx="313.600000" cy="186.000000" r="1"/>
<line x1="302.600000" y1="175.000000" x2="302.600000" y2="217.000000"  style="stroke: black; stroke-linecap:round; stroke-width:0.25; stroke-dasharray:3,3;"/>
<line x1="302.600000" y1="217.000000" x2="501.200000" y2="217.000000"  style="stroke: black; stroke-linecap:round; stroke-width:0.25; stroke-dasharray:3,3;"/>
<line x1="501.200000" y1="217.000000" x2="501.200000" y2="175.000000"  style="stroke: black; stroke-linecap:round; stroke-width:0.25; stroke-dasharray:3,3;"/>
<line x1="302.600000" y1="175.000000" x2="307.600000" y2="175.000000"  style="stroke: black; stroke-linecap:round; stroke-width:0.25; stroke-dasharray:3,3;"/>
<line x1="317.275000" y1="175.000000" x2="501.200000" y2="175.000000"  style="stroke: black; stroke-linecap:round; stroke-width:0.25; stroke-dasharray:3,3;"/>
<text x="307.600000" y="177.000000" font-family="Arial" font-size="7">w</text>
<rect x="519.200000" y="159.000000" width="24.000000" height="24.000000" rx="0" ry="0" style="stroke:none;fill:#cccccc;"/>
<rect x="518.200000" y="158.000000" width="24.000000" height="24.000000" rx="0" ry="0" style="stroke:none;fill:#4B71A1;"/>
<text x="530.200000" y="172.000000" font-family="Arial" font-size="7" text-anchor="middle" fill="#FFFFFF">-</text>
<circle cx="520.200000" cy="160.000000" r="1"/>
<line x1="515.200000" y1="165.000000" x2="518.200000" y2="166.000000"  transform="rotate(0.000000,518.200000,166.000000)" style="stroke: black; stroke-width:0.25;"/>
<line x1="515.200000" y1="167.000000" x2="518.200000" y2="166.000000"  transform="rotate(0.000000,518.200000,166.000000)" style="stroke: black; stroke-width:0.25;"/>
<line x1="515.200000" y1="173.000000" x2="518.200000" y2="174.000000"  transform="rotate(0.000000,518.200000,174.000000)" style="stroke: black; stroke-width:0.25;"/>
<line x1="515.200000" y1="175.000000" x2="518.200000" y2="174.000000"  transform="rotate(0.000000,518.200000,174.000000)" style="stroke: black; stroke-width:0.25;"/>
<rect x="559.200000" y="155.000000" width="24.000000" height="24.000000" rx="0" ry="0" style="stroke:none;fill:#cccccc;"/>
<rect x="558.200000" y="154.000000" width="24.000000" height="24.000000" rx="0" ry="0" style="stroke:none;fill:#4B71A1;"/>
<text x="570.200000" y="168.000000" font-family="Arial" font-size="7" text-anchor="middle" fill="#FFFFFF">*</text>
<circle cx="560.200000" cy="156.000000" r="1"/>
<line x1="555.200000" y1="161.000000" x2="558.200000" y2="162.000000"  transform="rotate(0.000000,558.200000,162.000000)" style="stroke: black; stroke-width:0.25;"/>
<line x1="555.200000" y1="163.000000" x2="558.200000" y2="162.000000"  transform="rotate(0.000000,558.200000,162.000000)" style="stroke: black; stroke-width:0.25;"/>
<line x1="555.200000" y1="169.000000" x2="558.200000" y2="170.000000"  transform="rotate(0.000000,558.200000,170.000000)" style="stroke: black; stroke-width:0.25;"/>
<line x1="555.200000" y1="171.000000" x2="558.200000" y2="170.000000"  transform="rotate(0.000000,558.200000,170.000000)" style="stroke: black; stroke-width:0.25;"/>
<rect x="332.600000" y="245.000000" width="180.600000" height="24.000000" rx="0" ry="0" style="stroke:none;fill:#cccccc;"/>
<rect x="331.600000" y="244.000000" width="180.600000" height="24.000000" rx="0" ry="0" style="stroke:none;fill:#477881;"/>
<text x="421.900000" y="258.000000" font-family="Arial" font-size="7" text-anchor="middle" fill="#FFFFFF">vslider(Dry-Wet, 1.0f, 0.0f, 1.0f, 0.01f)</text>
<circle cx="333.600000" cy="246.000000" r="1"/>
<line x1="322.600000" y1="235.000000" x2="322.600000" y2="277.000000"  style="stroke: black; stroke-linecap:round; stroke-width:0.25; stroke-dasharray:3,3;"/>
<line x1="322.600000" y1="277.000000" x2="521.200000" y2="277.000000"  style="stroke: black; stroke-linecap:round; stroke-width:0.25; stroke-dasharray:3,3;"/>
<line x1="521.200000" y1="277.000000" x2="521.200000" y2="235.000000"  style="stroke: black; stroke-linecap:round; stroke-width:0.25; stroke-dasharray:3,3;"/>
<line x1="322.600000" y1="235.000000" x2="327.600000" y2="235.000000"  style="stroke: black; stroke-linecap:round; stroke-width:0.25; stroke-dasharray:3,3;"/>
<line x1="337.275000" y1="235.000000" x2="521.200000" y2="235.000000"  style="stroke: black; stroke-linecap:round; stroke-width:0.25; stroke-dasharray:3,3;"/>
<text x="327.600000" y="237.000000" font-family="Arial" font-size="7">w</text>
<rect x="539.200000" y="241.000000" width="24.000000" height="24.000000" rx="0" ry="0" style="stroke:none;fill:#cccccc;"/>
<rect x="538.200000" y="240.000000" width="24.000000" height="24.000000" rx="0" ry="0" style="stroke:none;fill:#4B71A1;"/>
<text x="550.200000" y="254.000000" font-family="Arial" font-size="7" text-anchor="middle" fill="#FFFFFF">*</text>
<circle cx="540.200000" cy="242.000000" r="1"/>
<line x1="535.200000" y1="247.000000" x2="538.200000" y2="248.000000"  transform="rotate(0.000000,538.200000,248.000000)" style="stroke: black; stroke-width:0.25;"/>
<line x1="535.200000" y1="249.000000" x2="538.200000" y2="248.000000"  transform="rotate(0.000000,538.200000,248.000000)" style="stroke: black; stroke-width:0.25;"/>
<line x1="535.200000" y1="255.000000" x2="538.200000" y2="256.000000"  transform="rotate(0.000000,538.200000,256.000000)" style="stroke: black; stroke-width:0.25;"/>
<line x1="535.200000" y1="257.000000" x2="538.200000" y2="256.000000"  transform="rotate(0.000000,538.200000,256.000000)" style="stroke: black; stroke-width:0.25;"/>
<line x1="15.000000" y1="15.000000" x2="15.000000" y2="377.000000"  style="stroke: black; stroke-linecap:round; stroke-width:0.25; stroke-dasharray:3,3;"/>
<line x1="15.000000" y1="377.000000" x2="697.200000" y2="377.000000"  style="stroke: black; stroke-linecap:round; stroke-width:0.25; stroke-dasharray:3,3;"/>
<line x1="697.200000" y1="377.000000" x2="697.200000" y2="15.000000"  style="stroke: black; stroke-linecap:round; stroke-width:0.25; stroke-dasharray:3,3;"/>
<line x1="15.000000" y1="15.000000" x2="20.000000" y2="15.000000"  style="stroke: black; stroke-linecap:round; stroke-width:0.25; stroke-dasharray:3,3;"/>
<line x1="119.975000" y1="15.000000" x2="697.200000" y2="15.000000"  style="stroke: black; stroke-linecap:round; stroke-width:0.25; stroke-dasharray:3,3;"/>
<text x="20.000000" y="17.000000" font-family="Arial" font-size="7">drywet(_&lt;:(((...nv = {}] : +)</text>
<line x1="699.200000" y1="195.000000" x2="702.200000" y2="196.000000"  transform="rotate(0.000000,702.200000,196.000000)" style="stroke: black; stroke-width:0.25;"/>
<line x1="699.200000" y1="197.000000" x2="702.200000" y2="196.000000"  transform="rotate(0.000000,702.200000,196.000000)" style="stroke: black; stroke-width:0.25;"/>
<line x1="10.000000" y1="196.000000" x2="20.000000" y2="196.000000"  style="stroke:black; stroke-linecap:round; stroke-width:0.25;"/>
<line x1="20.000000" y1="196.000000" x2="24.000000" y2="196.000000"  style="stroke:black; stroke-linecap:round; stroke-width:0.25;"/>
<line x1="24.000000" y1="196.000000" x2="28.000000" y2="196.000000"  style="stroke:black; stroke-linecap:round; stroke-width:0.25;"/>
<line x1="28.000000" y1="196.000000" x2="28.000000" y2="196.000000"  style="stroke:black; stroke-linecap:round; stroke-width:0.25;"/>
<line x1="28.000000" y1="196.000000" x2="32.000000" y2="196.000000"  style="stroke:black; stroke-linecap:round; stroke-width:0.25;"/>
<line x1="32.000000" y1="196.000000" x2="36.000000" y2="196.000000"  style="stroke:black; stroke-linecap:round; stroke-width:0.25;"/>
<line x1="36.000000" y1="196.000000" x2="126.000000" y2="200.000000"  style="stroke:black; stroke-linecap:round; stroke-width:0.25;"/>
<line x1="36.000000" y1="196.000000" x2="126.000000" y2="24.000000"  style="stroke:black; stroke-linecap:round; stroke-width:0.25;"/>
<line x1="126.000000" y1="200.000000" x2="130.000000" y2="200.000000"  style="stroke:black; stroke-linecap:round; stroke-width:0.25;"/>
<line x1="126.000000" y1="24.000000" x2="203.800000" y2="24.000000"  style="stroke:black; stroke-linecap:round; stroke-width:0.25;"/>
<line x1="130.000000" y1="200.000000" x2="134.000000" y2="200.000000"  style="stroke:black; stroke-linecap:round; stroke-width:0.25;"/>
<line x1="134.000000" y1="200.000000" x2="222.000000" y2="36.000000"  style="stroke:black; stroke-linecap:round; stroke-width:0.25;"/>
<line x1="134.000000" y1="200.000000" x2="222.000000" y2="44.000000"  style="stroke:black; stroke-linecap:round; stroke-width:0.25;"/>
<line x1="134.000000" y1="200.000000" x2="222.000000" y2="52.000000"  style="stroke:black; stroke-linecap:round; stroke-width:0.25;"/>
<line x1="134.000000" y1="200.000000" x2="222.000000" y2="60.000000"  style="stroke:black; stroke-linecap:round; stroke-width:0.25;"/>
<line x1="134.000000" y1="200.000000" x2="222.000000" y2="68.000000"  style="stroke:black; stroke-linecap:round; stroke-width:0.25;"/>
<line x1="134.000000" y1="200.000000" x2="222.000000" y2="76.000000"  style="stroke:black; stroke-linecap:round; stroke-width:0.25;"/>
<line x1="134.000000" y1="200.000000" x2="222.000000" y2="84.000000"  style="stroke:black; stroke-linecap:round; stroke-width:0.25;"/>
<line x1="134.000000" y1="200.000000" x2="222.000000" y2="92.000000"  style="stroke:black; stroke-linecap:round; stroke-width:0.25;"/>
<line x1="134.000000" y1="200.000000" x2="222.000000" y2="100.000000"  style="stroke:black; stroke-linecap:round; stroke-width:0.25;"/>
<line x1="134.000000" y1="200.000000" x2="222.000000" y2="108.000000"  style="stroke:black; stroke-linecap:round; stroke-width:0.25;"/>
<line x1="134.000000" y1="200.000000" x2="222.000000" y2="116.000000"  style="stroke:black; stroke-linecap:round; stroke-width:0.25;"/>
<line x1="134.000000" y1="200.000000" x2="222.000000" y2="124.000000"  style="stroke:black; stroke-linecap:round; stroke-width:0.25;"/>
<line x1="134.000000" y1="200.000000" x2="222.000000" y2="132.000000"  style="stroke:black; stroke-linecap:round; stroke-width:0.25;"/>
<line x1="134.000000" y1="200.000000" x2="222.000000" y2="140.000000"  style="stroke:black; stroke-linecap:round; stroke-width:0.25;"/>
<line x1="134.000000" y1="200.000000" x2="222.000000" y2="148.000000"  style="stroke:black; stroke-linecap:round; stroke-width:0.25;"/>
<line x1="134.000000" y1="200.000000" x2="222.000000" y2="156.000000"  style="stroke:black; stroke-linecap:round; stroke-width:0.25;"/>
<line x1="134.000000" y1="200.000000" x2="222.000000" y2="164.000000"  style="stroke:black; stroke-linecap:round; stroke-width:0.25;"/>
<line x1="134.000000" y1="200.000000" x2="222.000000" y2="172.000000"  style="stroke:black; stroke-linecap:round; stroke-width:0.25;"/>
<line x1="134.000000" y1="200.000000" x2="222.000000" y2="180.000000"  style="stroke:black; stroke-linecap:round; stroke-width:0.25;"/>
<line x1="134.000000" y1="200.000000" x2="222.000000" y2="188.000000"  style="stroke:black; stroke-linecap:round; stroke-width:0.25;"/>
<line x1="134.000000" y1="200.000000" x2="222.000000" y2="196.000000"  style="stroke:black; stroke-linecap:round; stroke-width:0.25;"/>
<line x1="134.000000" y1="200.000000" x2="222.000000" y2="204.000000"  style="stroke:black; stroke-linecap:round; stroke-width:0.25;"/>
<line x1="134.000000" y1="200.000000" x2="222.000000" y2="212.000000"  style="stroke:black; stroke-linecap:round; stroke-width:0.25;"/>
<line x1="134.000000" y1="200.000000" x2="222.000000" y2="220.000000"  style="stroke:black; stroke-linecap:round; stroke-width:0.25;"/>
<line x1="134.000000" y1="200.000000" x2="222.000000" y2="228.000000"  style="stroke:black; stroke-linecap:round; stroke-width:0.25;"/>
<line x1="134.000000" y1="200.000000" x2="222.000000" y2="236.000000"  style="stroke:black; stroke-linecap:round; stroke-width:0.25;"/>
<line x1="134.000000" y1="200.000000" x2="222.000000" y2="244.000000"  style="stroke:black; stroke-linecap:round; stroke-width:0.25;"/>
<line x1="134.000000" y1="200.000000" x2="222.000000" y2="252.000000"  style="stroke:black; stroke-linecap:round; stroke-width:0.25;"/>
<line x1="134.000000" y1="200.000000" x2="222.000000" y2="260.000000"  style="stroke:black; stroke-linecap:round; stroke-width:0.25;"/>
<line x1="134.000000" y1="200.000000" x2="222.000000" y2="268.000000"  style="stroke:black; stroke-linecap:round; stroke-width:0.25;"/>
<line x1="134.000000" y1="200.000000" x2="222.000000" y2="276.000000"  style="stroke:black; stroke-linecap:round; stroke-width:0.25;"/>
<line x1="134.000000" y1="200.000000" x2="222.000000" y2="284.000000"  style="stroke:black; stroke-linecap:round; stroke-width:0.25;"/>
<line x1="134.000000" y1="200.000000" x2="222.000000" y2="292.000000"  style="stroke:black; stroke-linecap:round; stroke-width:0.25;"/>
<line x1="134.000000" y1="200.000000" x2="222.000000" y2="300.000000"  style="stroke:black; stroke-linecap:round; stroke-width:0.25;"/>
<line x1="134.000000" y1="200.000000" x2="222.000000" y2="308.000000"  style="stroke:black; stroke-linecap:round; stroke-width:0.25;"/>
<line x1="134.000000" y1="200.000000" x2="222.000000" y2="316.000000"  style="stroke:black; stroke-linecap:round; stroke-width:0.25;"/>
<line x1="134.000000" y1="200.000000" x2="222.000000" y2="324.000000"  style="stroke:black; stroke-linecap:round; stroke-width:0.25;"/>
<line x1="134.000000" y1="200.000000" x2="222.000000" y2="332.000000"  style="stroke:black; stroke-linecap:round; stroke-width:0.25;"/>
<line x1="134.000000" y1="200.000000" x2="222.000000" y2="340.000000"  style="stroke:black; stroke-linecap:round; stroke-width:0.25;"/>
<line x1="134.000000" y1="200.000000" x2="222.000000" y2="348.000000"  style="stroke:black; stroke-linecap:round; stroke-width:0.25;"/>
<line x1="134.000000" y1="200.000000" x2="222.000000" y2="356.000000"  style="stroke:black; stroke-linecap:round; stroke-width:0.25;"/>
<line x1="134.000000" y1="200.000000" x2="222.000000" y2="364.000000"  style="stroke:black; stroke-linecap:round; stroke-width:0.25;"/>
<line x1="203.800000" y1="24.000000" x2="281.600000" y2="24.000000"  style="stroke:black; stroke-linecap:round; stroke-width:0.25;"/>
<line x1="222.000000" y1="36.000000" x2="226.000000" y2="36.000000"  style="stroke:black; stroke-linecap:round; stroke-width:0.25;"/>
<line x1="222.000000" y1="44.000000" x2="226.000000" y2="44.000000"  style="stroke:black; stroke-linecap:round; stroke-width:0.25;"/>
<line x1="222.000000" y1="52.000000" x2="226.000000" y2="52.000000"  style="stroke:black; stroke-linecap:round; stroke-width:0.25;"/>
<line x1="222.000000" y1="60.000000" x2="226.000000" y2="60.000000"  style="stroke:black; stroke-linecap:round; stroke-width:0.25;"/>
<line x1="222.000000" y1="68.000000" x2="226.000000" y2="68.000000"  style="stroke:black; stroke-linecap:round; stroke-width:0.25;"/>
<line x1="222.000000" y1="76.000000" x2="226.000000" y2="76.000000"  style="stroke:black; stroke-linecap:round; stroke-width:0.25;"/>
<line x1="222.000000" y1="84.000000" x2="226.000000" y2="84.000000"  style="stroke:black; stroke-linecap:round; stroke-width:0.25;"/>
<line x1="222.000000" y1="92.000000" x2="226.000000" y2="92.000000"  style="stroke:black; stroke-linecap:round; stroke-width:0.25;"/>
<line x1="222.000000" y1="100.000000" x2="226.000000" y2="100.000000"  style="stroke:black; stroke-linecap:round; stroke-width:0.25;"/>
<line x1="222.000000" y1="108.000000" x2="226.000000" y2="108.000000"  style="stroke:black; stroke-linecap:round; stroke-width:0.25;"/>
<line x1="222.000000" y1="116.000000" x2="226.000000" y2="116.000000"  style="stroke:black; stroke-linecap:round; stroke-width:0.25;"/>
<line x1="222.000000" y1="124.000000" x2="226.000000" y2="124.000000"  style="stroke:black; stroke-linecap:round; stroke-width:0.25;"/>
<line x1="222.000000" y1="132.000000" x2="226.000000" y2="132.000000"  style="stroke:black; stroke-linecap:round; stroke-width:0.25;"/>
<line x1="222.000000" y1="140.000000" x2="226.000000" y2="140.000000"  style="stroke:black; stroke-linecap:round; stroke-width:0.25;"/>
<line x1="222.000000" y1="148.000000" x2="226.000000" y2="148.000000"  style="stroke:black; stroke-linecap:round; stroke-width:0.25;"/>
<line x1="222.000000" y1="156.000000" x2="226.000000" y2="156.000000"  style="stroke:black; stroke-linecap:round; stroke-width:0.25;"/>
<line x1="222.000000" y1="164.000000" x2="226.000000" y2="164.000000"  style="stroke:black; stroke-linecap:round; stroke-width:0.25;"/>
<line x1="222.000000" y1="172.000000" x2="226.000000" y2="172.000000"  style="stroke:black; stroke-linecap:round; stroke-width:0.25;"/>
<line x1="222.000000" y1="180.000000" x2="226.000000" y2="180.000000"  style="stroke:black; stroke-linecap:round; stroke-width:0.25;"/>
<line x1="222.000000" y1="188.000000" x2="226.000000" y2="188.000000"  style="stroke:black; stroke-linecap:round; stroke-width:0.25;"/>
<line x1="222.000000" y1="196.000000" x2="226.000000" y2="196.000000"  style="stroke:black; stroke-linecap:round; stroke-width:0.25;"/>
<line x1="222.000000" y1="204.000000" x2="226.000000" y2="204.000000"  style="stroke:black; stroke-linecap:round; stroke-width:0.25;"/>
<line x1="222.000000" y1="212.000000" x2="226.000000" y2="212.000000"  style="stroke:black; stroke-linecap:round; stroke-width:0.25;"/>
<line x1="222.000000" y1="220.000000" x2="226.000000" y2="220.000000"  style="stroke:black; stroke-linecap:round; stroke-width:0.25;"/>
<line x1="222.000000" y1="228.000000" x2="226.000000" y2="228.000000"  style="stroke:black; stroke-linecap:round; stroke-width:0.25;"/>
<line x1="222.000000" y1="236.000000" x2="226.000000" y2="236.000000"  style="stroke:black; stroke-linecap:round; stroke-width:0.25;"/>
<line x1="222.000000" y1="244.000000" x2="226.000000" y2="244.000000"  style="stroke:black; stroke-linecap:round; stroke-width:0.25;"/>
<line x1="222.000000" y1="252.000000" x2="226.000000" y2="252.000000"  style="stroke:black; stroke-linecap:round; stroke-width:0.25;"/>
<line x1="222.000000" y1="260.000000" x2="226.000000" y2="260.000000"  style="stroke:black; stroke-linecap:round; stroke-width:0.25;"/>
<line x1="222.000000" y1="268.000000" x2="226.000000" y2="268.000000"  style="stroke:black; stroke-linecap:round; stroke-width:0.25;"/>
<line x1="222.000000" y1="276.000000" x2="226.000000" y2="276.000000"  style="stroke:black; stroke-linecap:round; stroke-width:0.25;"/>
<line x1="222.000000" y1="284.000000" x2="226.000000" y2="284.000000"  style="stroke:black; stroke-linecap:round; stroke-width:0.25;"/>
<line x1="222.000000" y1="292.000000" x2="226.000000" y2="292.000000"  style="stroke:black; stroke-linecap:round; stroke-width:0.25;"/>
<line x1="222.000000" y1="300.000000" x2="226.000000" y2="300.000000"  style="stroke:black; stroke-linecap:round; stroke-width:0.25;"/>
<line x1="222.000000" y1="308.000000" x2="226.000000" y2="308.000000"  style="stroke:black; stroke-linecap:round; stroke-width:0.25;"/>
<line x1="222.000000" y1="316.000000" x2="226.000000" y2="316.000000"  style="stroke:black; stroke-linecap:round; stroke-width:0.25;"/>
<line x1="222.000000" y1="324.000000" x2="226.000000" y2="324.000000"  style="stroke:black; stroke-linecap:round; stroke-width:0.25;"/>
<line x1="222.000000" y1="332.000000" x2="226.000000" y2="332.000000"  style="stroke:black; stroke-linecap:round; stroke-width:0.25;"/>
<line x1="222.000000" y1="340.000000" x2="226.000000" y2="340.000000"  style="stroke:black; stroke-linecap:round; stroke-width:0.25;"/>
<line x1="222.000000" y1="348.000000" x2="226.000000" y2="348.000000"  style="stroke:black; stroke-linecap:round; stroke-width:0.25;"/>
<line x1="222.000000" y1="356.000000" x2="226.000000" y2="356.000000"  style="stroke:black; stroke-linecap:round; stroke-width:0.25;"/>
<line x1="222.000000" y1="364.000000" x2="226.000000" y2="364.000000"  style="stroke:black; stroke-linecap:round; stroke-width:0.25;"/>
<line x1="277.600000" y1="200.000000" x2="281.600000" y2="200.000000"  style="stroke:black; stroke-linecap:round; stroke-width:0.25;"/>
<line x1="281.600000" y1="24.000000" x2="297.600000" y2="24.000000"  style="stroke:black; stroke-linecap:round; stroke-width:0.25;"/>
<line x1="281.600000" y1="200.000000" x2="289.600000" y2="200.000000"  style="stroke:black; stroke-linecap:round; stroke-width:0.25;"/>
<line x1="289.600000" y1="200.000000" x2="289.600000" y2="226.000000"  style="stroke:black; stroke-linecap:round; stroke-width:0.25;"/>
<line x1="289.600000" y1="226.000000" x2="297.600000" y2="226.000000"  style="stroke:black; stroke-linecap:round; stroke-width:0.25;"/>
<line x1="297.600000" y1="24.000000" x2="297.600000" y2="114.000000"  style="stroke:black; stroke-linecap:round; stroke-width:0.25;"/>
<line x1="297.600000" y1="114.000000" x2="297.600000" y2="114.000000"  style="stroke:black; stroke-linecap:round; stroke-width:0.25;"/>
<line x1="297.600000" y1="114.000000" x2="421.900000" y2="114.000000"  style="stroke:black; stroke-linecap:round; stroke-width:0.25;"/>
<line x1="297.600000" y1="226.000000" x2="317.600000" y2="226.000000"  style="stroke:black; stroke-linecap:round; stroke-width:0.25;"/>
<line x1="317.600000" y1="226.000000" x2="421.900000" y2="226.000000"  style="stroke:black; stroke-linecap:round; stroke-width:0.25;"/>
<line x1="413.900000" y1="144.000000" x2="417.900000" y2="144.000000"  style="stroke:black; stroke-linecap:round; stroke-width:0.25;"/>
<line x1="417.900000" y1="144.000000" x2="427.900000" y2="144.000000"  style="stroke:black; stroke-linecap:round; stroke-width:0.25;"/>
<line x1="421.900000" y1="114.000000" x2="546.200000" y2="114.000000"  style="stroke:black; stroke-linecap:round; stroke-width:0.25;"/>
<line x1="421.900000" y1="226.000000" x2="526.200000" y2="226.000000"  style="stroke:black; stroke-linecap:round; stroke-width:0.25;"/>
<line x1="427.900000" y1="144.000000" x2="506.200000" y2="144.000000"  style="stroke:black; stroke-linecap:round; stroke-width:0.25;"/>
<line x1="492.200000" y1="196.000000" x2="496.200000" y2="196.000000"  style="stroke:black; stroke-linecap:round; stroke-width:0.25;"/>
<line x1="496.200000" y1="196.000000" x2="506.200000" y2="196.000000"  style="stroke:black; stroke-linecap:round; stroke-width:0.25;"/>
<line x1="506.200000" y1="144.000000" x2="514.200000" y2="144.000000"  style="stroke:black; stroke-linecap:round; stroke-width:0.25;"/>
<line x1="506.200000" y1="174.000000" x2="514.200000" y2="174.000000"  style="stroke:black; stroke-linecap:round; stroke-width:0.25;"/>
<line x1="506.200000" y1="196.000000" x2="506.200000" y2="174.000000"  style="stroke:black; stroke-linecap:round; stroke-width:0.25;"/>
<line x1="506.200000" y1="196.000000" x2="506.200000" y2="196.000000"  style="stroke:black; stroke-linecap:round; stroke-width:0.25;"/>
<line x1="512.200000" y1="256.000000" x2="516.200000" y2="256.000000"  style="stroke:black; stroke-linecap:round; stroke-width:0.25;"/>
<line x1="514.200000" y1="144.000000" x2="514.200000" y2="166.000000"  style="stroke:black; stroke-linecap:round; stroke-width:0.25;"/>
<line x1="514.200000" y1="166.000000" x2="514.200000" y2="166.000000"  style="stroke:black; stroke-linecap:round; stroke-width:0.25;"/>
<line x1="514.200000" y1="166.000000" x2="518.200000" y2="166.000000"  style="stroke:black; stroke-linecap:round; stroke-width:0.25;"/>
<line x1="514.200000" y1="174.000000" x2="518.200000" y2="174.000000"  style="stroke:black; stroke-linecap:round; stroke-width:0.25;"/>
<line x1="516.200000" y1="256.000000" x2="526.200000" y2="256.000000"  style="stroke:black; stroke-linecap:round; stroke-width:0.25;"/>
<line x1="526.200000" y1="226.000000" x2="534.200000" y2="226.000000"  style="stroke:black; stroke-linecap:round; stroke-width:0.25;"/>
<line x1="526.200000" y1="256.000000" x2="534.200000" y2="256.000000"  style="stroke:black; stroke-linecap:round; stroke-width:0.25;"/>
<line x1="534.200000" y1="226.000000" x2="534.200000" y2="248.000000"  style="stroke:black; stroke-linecap:round; stroke-width:0.25;"/>
<line x1="534.200000" y1="248.000000" x2="534.200000" y2="248.000000"  style="stroke:black; stroke-linecap:round; stroke-width:0.25;"/>
<line x1="534.200000" y1="248.000000" x2="538.200000" y2="248.000000"  style="stroke:black; stroke-linecap:round; stroke-width:0.25;"/>
<line x1="534.200000" y1="256.000000" x2="538.200000" y2="256.000000"  style="stroke:black; stroke-linecap:round; stroke-width:0.25;"/>
<line x1="542.200000" y1="170.000000" x2="546.200000" y2="170.000000"  style="stroke:black; stroke-linecap:round; stroke-width:0.25;"/>
<line x1="546.200000" y1="114.000000" x2="554.200000" y2="114.000000"  style="stroke:black; stroke-linecap:round; stroke-width:0.25;"/>
<line x1="546.200000" y1="170.000000" x2="554.200000" y2="170.000000"  style="stroke:black; stroke-linecap:round; stroke-width:0.25;"/>
<line x1="554.200000" y1="114.000000" x2="554.200000" y2="162.000000"  style="stroke:black; stroke-linecap:round; stroke-width:0.25;"/>
<line x1="554.200000" y1="162.000000" x2="554.200000" y2="162.000000"  style="stroke:black; stroke-linecap:round; stroke-width:0.25;"/>
<line x1="554.200000" y1="162.000000" x2="558.200000" y2="162.000000"  style="stroke:black; stroke-linecap:round; stroke-width:0.25;"/>
<line x1="554.200000" y1="170.000000" x2="558.200000" y2="170.000000"  style="stroke:black; stroke-linecap:round; stroke-width:0.25;"/>
<line x1="562.200000" y1="252.000000" x2="566.200000" y2="252.000000"  style="stroke:black; stroke-linecap:round; stroke-width:0.25;"/>
<line x1="566.200000" y1="252.000000" x2="586.200000" y2="252.000000"  style="stroke:black; stroke-linecap:round; stroke-width:0.25;"/>
<line x1="582.200000" y1="166.000000" x2="586.200000" y2="166.000000"  style="stroke:black; stroke-linecap:round; stroke-width:0.25;"/>
<line x1="586.200000" y1="166.000000" x2="676.200000" y2="196.000000"  style="stroke:black; stroke-linecap:round; stroke-width:0.25;"/>
<line x1="586.200000" y1="252.000000" x2="676.200000" y2="196.000000"  style="stroke:black; stroke-linecap:round; stroke-width:0.25;"/>
<line x1="676.200000" y1="196.000000" x2="680.200000" y2="196.000000"  style="stroke:black; stroke-linecap:round; stroke-width:0.25;"/>
<line x1="680.200000" y1="196.000000" x2="684.200000" y2="196.000000"  style="stroke:black; stroke-linecap:round; stroke-width:0.25;"/>
<line x1="684.200000" y1="196.000000" x2="684.200000" y2="196.000000"  style="stroke:black; stroke-linecap:round; stroke-width:0.25;"/>
<line x1="684.200000" y1="196.000000" x2="688.200000" y2="196.000000"  style="stroke:black; stroke-linecap:round; stroke-width:0.25;"/>
<line x1="688.200000" y1="196.000000" x2="692.200000" y2="196.000000"  style="stroke:black; stroke-linecap:round; stroke-width:0.25;"/>
<line x1="692.200000" y1="196.000000" x2="702.200000" y2="196.000000"  style="stroke:black; stroke-linecap:round; stroke-width:0.25;"/>
</svg>
